<svg width="219" height="47" viewBox="0 0 219 47" fill="none" xmlns="http://www.w3.org/2000/svg">
<path d="M212.567 11.1888C214.674 9.95146 216.25 8.0032 217.001 5.70774C215.022 6.86171 212.856 7.67457 210.598 8.11117C209.074 6.52816 207.064 5.48129 204.875 5.13193C202.686 4.78258 200.442 5.15013 198.487 6.17793C196.532 7.20573 194.975 8.83672 194.057 10.8195C193.138 12.8023 192.909 15.0267 193.405 17.15C189.396 16.9522 185.473 15.9284 181.893 14.1449C178.312 12.3614 175.154 9.85807 172.622 6.79748C171.334 8.9795 170.94 11.5612 171.52 14.0183C172.099 16.4754 173.609 18.6237 175.742 20.0267C174.141 19.9762 172.576 19.5503 171.176 18.7846V18.9093C171.177 21.1972 171.983 23.4146 173.457 25.1853C174.932 26.956 176.985 28.1712 179.267 28.6246C177.782 29.0215 176.225 29.08 174.713 28.7954C175.359 30.7633 176.614 32.4839 178.303 33.7174C179.991 34.9508 182.03 35.6354 184.134 35.6756C180.562 38.4302 176.15 39.9241 171.609 39.9168C170.803 39.9168 169.999 39.8706 169.2 39.7806C173.812 42.6919 179.179 44.2372 184.661 44.2319C188.436 44.2574 192.179 43.5455 195.672 42.1377C199.165 40.7299 202.339 38.6542 205.009 36.0312C207.678 33.4081 209.791 30.2901 211.223 26.8581C212.656 23.4262 213.38 19.7488 213.354 16.0395C213.354 15.6101 213.345 15.1829 213.324 14.7581C215.299 13.3558 217.003 11.6186 218.357 9.62803C216.517 10.4293 214.566 10.9554 212.567 11.1888Z" fill="#ECECE7"/>
<path d="M0 23.47C0.0013236 28.9679 1.99861 34.2851 5.63286 38.4659C9.26711 42.6466 14.3 45.4167 19.827 46.2784V30.1424H13.865V23.47H19.834V18.3907C19.7022 17.2019 19.8384 15.9992 20.2331 14.8679C20.6277 13.7367 21.271 12.7047 22.1174 11.8452C22.9637 10.9858 23.9922 10.3199 25.13 9.89498C26.2678 9.47005 27.4868 9.29646 28.7006 9.38654C30.463 9.41425 32.2255 9.56893 33.9646 9.84829V15.5256H30.9941C30.4893 15.4606 29.976 15.5079 29.4923 15.664C29.0086 15.8202 28.5667 16.0811 28.1995 16.4275C27.8322 16.774 27.5488 17.1971 27.3703 17.6655C27.1919 18.134 27.1228 18.6359 27.1683 19.1342V23.47H33.6802L32.6391 30.1447H27.1683V46.2784C31.6043 45.5896 35.7464 43.6666 39.1044 40.7368C42.4623 37.807 44.8955 33.9933 46.1158 29.7472C47.3361 25.501 47.2924 21.0002 45.9899 16.7777C44.6875 12.5552 42.1807 8.78772 38.7665 5.92141C35.3522 3.0551 31.1735 1.20996 26.7251 0.604448C22.2766 -0.00106195 17.7447 0.658413 13.6658 2.50479C9.58702 4.35118 6.13213 7.30714 3.71019 11.0227C1.28826 14.7383 0.00071292 19.0579 0 23.47Z" fill="#ECECE7"/>
<path d="M107.939 0.385986C101.551 0.385986 100.755 0.416293 98.2546 0.5202C95.7442 0.641426 94.0461 1.02386 92.5478 1.59536C90.9796 2.17698 89.5595 3.08761 88.3863 4.26376C87.1858 5.41367 86.2584 6.80969 85.6702 8.35224C85.0885 9.82427 84.6993 11.4926 84.5759 13.9589C84.4628 16.4166 84.4393 17.1974 84.4393 23.4737C84.4393 29.75 84.4701 30.5322 84.5759 32.9885C84.6993 35.4476 85.0885 37.1231 85.6702 38.5951C86.2622 40.1358 87.1891 41.531 88.3863 42.6836C89.5567 43.8631 90.9777 44.7742 92.5478 45.352C94.0461 45.9163 95.7515 46.306 98.2546 46.4272C100.756 46.5383 101.551 46.5614 107.939 46.5614C114.328 46.5614 115.124 46.5311 117.624 46.4272C120.127 46.306 121.832 45.9149 123.331 45.352C124.899 44.7704 126.319 43.8598 127.492 42.6836C128.694 41.535 129.622 40.1386 130.208 38.5951C130.783 37.1231 131.179 35.4476 131.303 32.9885C131.416 30.5308 131.439 29.75 131.439 23.4737C131.439 17.1974 131.408 16.4152 131.303 13.9589C131.179 11.4998 130.781 9.81561 130.208 8.35224C129.616 6.81161 128.689 5.41636 127.492 4.26376C126.323 3.08281 124.902 2.17144 123.331 1.59536C121.832 1.02386 120.127 0.641426 117.624 0.5202C115.122 0.409077 114.328 0.385986 107.939 0.385986ZM107.939 4.54229C114.213 4.54229 114.962 4.5726 117.442 4.67651C119.729 4.78186 120.975 5.15708 121.802 5.47458C122.824 5.84536 123.749 6.43551 124.51 7.20204C125.289 7.94646 125.888 8.85352 126.261 9.85602C126.584 10.6685 126.966 11.8923 127.074 14.1393C127.179 16.5754 127.21 17.3128 127.21 23.4751C127.21 29.6374 127.179 30.3749 127.065 32.811C126.941 35.058 126.559 36.2818 126.238 37.0943C125.793 38.1781 125.296 38.9357 124.477 39.7554C123.713 40.5172 122.788 41.1045 121.768 41.4757C120.951 41.7932 119.688 42.1684 117.392 42.2738C114.899 42.3777 114.165 42.408 107.875 42.408C101.585 42.408 100.852 42.3777 98.3559 42.2651C96.0688 42.1439 94.807 41.7687 93.98 41.4526C92.8636 41.0153 92.0983 40.5275 91.2786 39.7223C90.4516 38.9098 89.9257 38.1362 89.5203 37.0611C89.1913 36.2587 88.8152 35.0175 88.6933 32.7619C88.6096 30.3417 88.5699 29.5913 88.5699 23.4405C88.5699 17.2926 88.6096 16.5407 88.6933 14.0903C88.8152 11.8346 89.1913 10.5964 89.5203 9.79107C89.9257 8.69283 90.4531 7.94238 91.2786 7.12988C92.0968 6.32604 92.8636 5.8065 93.98 5.39953C94.807 5.08348 96.038 4.70826 98.3339 4.59569C100.827 4.50766 101.561 4.47591 107.842 4.47591L107.939 4.54229ZM107.939 11.6239C106.355 11.6233 104.786 11.9295 103.322 12.525C101.858 13.1204 100.528 13.9935 99.4072 15.0942C98.2868 16.1949 97.3982 17.5018 96.7921 18.9401C96.186 20.3784 95.8743 21.9199 95.8749 23.4766C95.8743 25.0333 96.186 26.5748 96.7921 28.0131C97.3982 29.4514 98.2868 30.7582 99.4072 31.859C100.528 32.9597 101.858 33.8327 103.322 34.4282C104.786 35.0236 106.355 35.3298 107.939 35.3293C109.524 35.3298 111.093 35.0236 112.557 34.4282C114.021 33.8327 115.351 32.9597 116.471 31.859C117.592 30.7582 118.48 29.4514 119.086 28.0131C119.693 26.5748 120.004 25.0333 120.004 23.4766C120.004 21.9199 119.693 20.3784 119.086 18.9401C118.48 17.5018 117.592 16.1949 116.471 15.0942C115.351 13.9935 114.021 13.1204 112.557 12.525C111.093 11.9295 109.524 11.6233 107.939 11.6239ZM107.939 31.173C103.609 31.173 100.105 27.731 100.105 23.4766C100.105 19.2221 103.609 15.7802 107.939 15.7802C112.27 15.7802 115.773 19.2221 115.773 23.4766C115.773 27.731 112.27 31.173 107.939 31.173ZM123.31 11.1505C123.309 11.8861 123.011 12.5912 122.482 13.111C121.952 13.6309 121.234 13.9228 120.485 13.9228C120.115 13.9228 119.749 13.8512 119.407 13.712C119.065 13.5729 118.754 13.3689 118.492 13.1117C118.23 12.8545 118.023 12.5492 117.881 12.2132C117.739 11.8772 117.667 11.5171 117.667 11.1534C117.667 10.7897 117.739 10.4296 117.881 10.0936C118.023 9.7576 118.23 9.4523 118.492 9.19514C118.754 8.93797 119.065 8.73398 119.407 8.5948C119.749 8.45562 120.115 8.38399 120.485 8.38399C122.038 8.38399 123.31 9.62511 123.31 11.1505Z" fill="#ECECE7"/>
</svg>
