<svg width="520" height="200" viewBox="0 0 520 200" fill="none" xmlns="http://www.w3.org/2000/svg">
<mask id="path-1-inside-1_592_110" fill="white">
<path fill-rule="evenodd" clip-rule="evenodd" d="M193.714 132C180.41 170.973 143.478 199 100 199C45.3238 199 1 154.676 1 100C1 45.3238 45.3238 1 100 1C149.577 1 190.642 37.4418 197.871 85H198.882C191.645 36.8874 150.13 0 100 0C44.7715 0 0 44.7715 0 100C0 155.228 44.7715 200 100 200C144.037 200 181.426 171.535 194.77 132H193.714Z"/>
</mask>
<path d="M193.714 132V131H192.999L192.768 131.677L193.714 132ZM197.871 85L196.882 85.1503L197.011 86H197.871V85ZM198.882 85V86H200.044L199.871 84.8513L198.882 85ZM194.77 132L195.718 132.32L196.163 131H194.77V132ZM100 200C143.919 200 181.222 171.688 194.66 132.323L192.768 131.677C179.597 170.257 143.037 198 100 198V200ZM0 100C0 155.228 44.7715 200 100 200V198C45.8761 198 2 154.124 2 100H0ZM100 0C44.7715 0 0 44.7715 0 100H2C2 45.8761 45.8761 2 100 2V0ZM198.86 84.8497C191.558 36.8103 150.079 0 100 0V2C149.075 2 189.727 38.0734 196.882 85.1503L198.86 84.8497ZM197.871 86H198.882V84H197.871V86ZM199.871 84.8513C192.562 36.2566 150.633 -1 100 -1V1C149.628 1 190.729 37.5181 197.894 85.1487L199.871 84.8513ZM100 -1C44.2192 -1 -1 44.2192 -1 100H1C1 45.3238 45.3238 1 100 1V-1ZM-1 100C-1 155.781 44.2192 201 100 201V199C45.3238 199 1 154.676 1 100H-1ZM100 201C144.479 201 182.241 172.249 195.718 132.32L193.823 131.68C180.612 170.821 143.595 199 100 199V201ZM194.77 131H193.714V133H194.77V131Z" fill="url(#paint0_angular_592_110)" mask="url(#path-1-inside-1_592_110)"/>
<mask id="path-3-inside-2_592_110" fill="white">
<path fill-rule="evenodd" clip-rule="evenodd" d="M206.714 132C193.41 170.973 156.478 199 113 199C58.3238 199 14 154.676 14 100C14 45.3238 58.3238 1 113 1C162.577 1 203.642 37.4418 210.871 85H211.882C204.645 36.8874 163.13 0 113 0C57.7715 0 13 44.7715 13 100C13 155.228 57.7715 200 113 200C157.037 200 194.426 171.535 207.77 132H206.714Z"/>
</mask>
<path d="M206.714 132V131H205.999L205.768 131.677L206.714 132ZM210.871 85L209.882 85.1503L210.011 86H210.871V85ZM211.882 85V86H213.044L212.871 84.8513L211.882 85ZM207.77 132L208.718 132.32L209.163 131H207.77V132ZM113 200C156.919 200 194.222 171.688 207.66 132.323L205.768 131.677C192.597 170.257 156.037 198 113 198V200ZM13 100C13 155.228 57.7715 200 113 200V198C58.8761 198 15 154.124 15 100H13ZM113 0C57.7715 0 13 44.7715 13 100H15C15 45.8761 58.8761 2 113 2V0ZM211.86 84.8497C204.558 36.8103 163.079 0 113 0V2C162.075 2 202.727 38.0734 209.882 85.1503L211.86 84.8497ZM210.871 86H211.882V84H210.871V86ZM212.871 84.8513C205.562 36.2566 163.633 -1 113 -1V1C162.628 1 203.729 37.5181 210.894 85.1487L212.871 84.8513ZM113 -1C57.2192 -1 12 44.2192 12 100H14C14 45.3238 58.3238 1 113 1V-1ZM12 100C12 155.781 57.2192 201 113 201V199C58.3238 199 14 154.676 14 100H12ZM113 201C157.479 201 195.241 172.249 208.718 132.32L206.823 131.68C193.612 170.821 156.595 199 113 199V201ZM207.77 131H206.714V133H207.77V131Z" fill="url(#paint1_angular_592_110)" mask="url(#path-3-inside-2_592_110)"/>
<mask id="path-5-inside-3_592_110" fill="white">
<path fill-rule="evenodd" clip-rule="evenodd" d="M219.714 132C206.41 170.973 169.478 199 126 199C71.3238 199 27 154.676 27 100C27 45.3238 71.3238 1 126 1C175.577 1 216.642 37.4418 223.871 85H224.882C217.645 36.8874 176.13 0 126 0C70.7715 0 26 44.7715 26 100C26 155.228 70.7715 200 126 200C170.037 200 207.426 171.535 220.77 132H219.714Z"/>
</mask>
<path d="M219.714 132V131H218.999L218.768 131.677L219.714 132ZM223.871 85L222.882 85.1503L223.011 86H223.871V85ZM224.882 85V86H226.044L225.871 84.8513L224.882 85ZM220.77 132L221.718 132.32L222.163 131H220.77V132ZM126 200C169.919 200 207.222 171.688 220.66 132.323L218.768 131.677C205.597 170.257 169.037 198 126 198V200ZM26 100C26 155.228 70.7715 200 126 200V198C71.8761 198 28 154.124 28 100H26ZM126 0C70.7715 0 26 44.7715 26 100H28C28 45.8761 71.8761 2 126 2V0ZM224.86 84.8497C217.558 36.8103 176.079 0 126 0V2C175.075 2 215.727 38.0734 222.882 85.1503L224.86 84.8497ZM223.871 86H224.882V84H223.871V86ZM225.871 84.8513C218.562 36.2566 176.633 -1 126 -1V1C175.628 1 216.729 37.5181 223.894 85.1487L225.871 84.8513ZM126 -1C70.2192 -1 25 44.2192 25 100H27C27 45.3238 71.3238 1 126 1V-1ZM25 100C25 155.781 70.2192 201 126 201V199C71.3238 199 27 154.676 27 100H25ZM126 201C170.479 201 208.241 172.249 221.718 132.32L219.823 131.68C206.612 170.821 169.595 199 126 199V201ZM220.77 131H219.714V133H220.77V131Z" fill="url(#paint2_angular_592_110)" mask="url(#path-5-inside-3_592_110)"/>
<mask id="path-7-inside-4_592_110" fill="white">
<path fill-rule="evenodd" clip-rule="evenodd" d="M232.714 132C219.41 170.973 182.478 199 139 199C84.3238 199 40 154.676 40 100C40 45.3238 84.3238 1 139 1C188.577 1 229.642 37.4418 236.871 85H237.882C230.645 36.8874 189.13 0 139 0C83.7715 0 39 44.7715 39 100C39 155.228 83.7715 200 139 200C183.037 200 220.426 171.535 233.77 132H232.714Z"/>
</mask>
<path d="M232.714 132V131H231.999L231.768 131.677L232.714 132ZM236.871 85L235.882 85.1503L236.011 86H236.871V85ZM237.882 85V86H239.044L238.871 84.8513L237.882 85ZM233.77 132L234.718 132.32L235.163 131H233.77V132ZM139 200C182.919 200 220.222 171.688 233.66 132.323L231.768 131.677C218.597 170.257 182.037 198 139 198V200ZM39 100C39 155.228 83.7715 200 139 200V198C84.8761 198 41 154.124 41 100H39ZM139 0C83.7715 0 39 44.7715 39 100H41C41 45.8761 84.8761 2 139 2V0ZM237.86 84.8497C230.558 36.8103 189.079 0 139 0V2C188.075 2 228.727 38.0734 235.882 85.1503L237.86 84.8497ZM236.871 86H237.882V84H236.871V86ZM238.871 84.8513C231.562 36.2566 189.633 -1 139 -1V1C188.628 1 229.729 37.5181 236.894 85.1487L238.871 84.8513ZM139 -1C83.2192 -1 38 44.2192 38 100H40C40 45.3238 84.3238 1 139 1V-1ZM38 100C38 155.781 83.2192 201 139 201V199C84.3238 199 40 154.676 40 100H38ZM139 201C183.479 201 221.241 172.249 234.718 132.32L232.823 131.68C219.612 170.821 182.595 199 139 199V201ZM233.77 131H232.714V133H233.77V131Z" fill="url(#paint3_angular_592_110)" mask="url(#path-7-inside-4_592_110)"/>
<mask id="path-9-inside-5_592_110" fill="white">
<path fill-rule="evenodd" clip-rule="evenodd" d="M245.714 132C232.41 170.973 195.478 199 152 199C97.3238 199 53 154.676 53 100C53 45.3238 97.3238 1 152 1C201.577 1 242.642 37.4418 249.871 85H250.882C243.645 36.8874 202.13 0 152 0C96.7715 0 52 44.7715 52 100C52 155.228 96.7715 200 152 200C196.037 200 233.426 171.535 246.77 132H245.714Z"/>
</mask>
<path d="M245.714 132V131H244.999L244.768 131.677L245.714 132ZM249.871 85L248.882 85.1503L249.011 86H249.871V85ZM250.882 85V86H252.044L251.871 84.8513L250.882 85ZM246.77 132L247.718 132.32L248.163 131H246.77V132ZM152 200C195.919 200 233.222 171.688 246.66 132.323L244.768 131.677C231.597 170.257 195.037 198 152 198V200ZM52 100C52 155.228 96.7715 200 152 200V198C97.8761 198 54 154.124 54 100H52ZM152 0C96.7715 0 52 44.7715 52 100H54C54 45.8761 97.8761 2 152 2V0ZM250.86 84.8497C243.558 36.8103 202.079 0 152 0V2C201.075 2 241.727 38.0734 248.882 85.1503L250.86 84.8497ZM249.871 86H250.882V84H249.871V86ZM251.871 84.8513C244.562 36.2566 202.633 -1 152 -1V1C201.628 1 242.729 37.5181 249.894 85.1487L251.871 84.8513ZM152 -1C96.2192 -1 51 44.2192 51 100H53C53 45.3238 97.3238 1 152 1V-1ZM51 100C51 155.781 96.2192 201 152 201V199C97.3238 199 53 154.676 53 100H51ZM152 201C196.479 201 234.241 172.249 247.718 132.32L245.823 131.68C232.612 170.821 195.595 199 152 199V201ZM246.77 131H245.714V133H246.77V131Z" fill="url(#paint4_angular_592_110)" mask="url(#path-9-inside-5_592_110)"/>
<mask id="path-11-inside-6_592_110" fill="white">
<path fill-rule="evenodd" clip-rule="evenodd" d="M258.714 132C245.41 170.973 208.478 199 165 199C110.324 199 66 154.676 66 100C66 45.3238 110.324 1 165 1C214.577 1 255.642 37.4418 262.871 85H263.882C256.645 36.8874 215.13 0 165 0C109.772 0 65 44.7715 65 100C65 155.228 109.772 200 165 200C209.037 200 246.426 171.535 259.77 132H258.714Z"/>
</mask>
<path d="M258.714 132V131H257.999L257.768 131.677L258.714 132ZM262.871 85L261.882 85.1503L262.011 86H262.871V85ZM263.882 85V86H265.044L264.871 84.8513L263.882 85ZM259.77 132L260.718 132.32L261.163 131H259.77V132ZM165 200C208.919 200 246.222 171.688 259.66 132.323L257.768 131.677C244.597 170.257 208.037 198 165 198V200ZM65 100C65 155.228 109.772 200 165 200V198C110.876 198 67 154.124 67 100H65ZM165 0C109.772 0 65 44.7715 65 100H67C67 45.8761 110.876 2 165 2V0ZM263.86 84.8497C256.558 36.8103 215.079 0 165 0V2C214.075 2 254.727 38.0734 261.882 85.1503L263.86 84.8497ZM262.871 86H263.882V84H262.871V86ZM264.871 84.8513C257.562 36.2566 215.633 -1 165 -1V1C214.628 1 255.729 37.5181 262.894 85.1487L264.871 84.8513ZM165 -1C109.219 -1 64 44.2192 64 100H66C66 45.3238 110.324 1 165 1V-1ZM64 100C64 155.781 109.219 201 165 201V199C110.324 199 66 154.676 66 100H64ZM165 201C209.479 201 247.241 172.249 260.718 132.32L258.823 131.68C245.612 170.821 208.595 199 165 199V201ZM259.77 131H258.714V133H259.77V131Z" fill="url(#paint5_angular_592_110)" mask="url(#path-11-inside-6_592_110)"/>
<mask id="path-13-inside-7_592_110" fill="white">
<path fill-rule="evenodd" clip-rule="evenodd" d="M271.714 132C258.41 170.973 221.478 199 178 199C123.324 199 79 154.676 79 100C79 45.3238 123.324 1 178 1C227.577 1 268.642 37.4418 275.871 85H276.882C269.645 36.8874 228.13 0 178 0C122.772 0 78 44.7715 78 100C78 155.228 122.772 200 178 200C222.037 200 259.426 171.535 272.77 132H271.714Z"/>
</mask>
<path d="M271.714 132V131H270.999L270.768 131.677L271.714 132ZM275.871 85L274.882 85.1503L275.011 86H275.871V85ZM276.882 85V86H278.044L277.871 84.8513L276.882 85ZM272.77 132L273.718 132.32L274.163 131H272.77V132ZM178 200C221.919 200 259.222 171.688 272.66 132.323L270.768 131.677C257.597 170.257 221.037 198 178 198V200ZM78 100C78 155.228 122.772 200 178 200V198C123.876 198 80 154.124 80 100H78ZM178 0C122.772 0 78 44.7715 78 100H80C80 45.8761 123.876 2 178 2V0ZM276.86 84.8497C269.558 36.8103 228.079 0 178 0V2C227.075 2 267.727 38.0734 274.882 85.1503L276.86 84.8497ZM275.871 86H276.882V84H275.871V86ZM277.871 84.8513C270.562 36.2566 228.633 -1 178 -1V1C227.628 1 268.729 37.5181 275.894 85.1487L277.871 84.8513ZM178 -1C122.219 -1 77 44.2192 77 100H79C79 45.3238 123.324 1 178 1V-1ZM77 100C77 155.781 122.219 201 178 201V199C123.324 199 79 154.676 79 100H77ZM178 201C222.479 201 260.241 172.249 273.718 132.32L271.823 131.68C258.612 170.821 221.595 199 178 199V201ZM272.77 131H271.714V133H272.77V131Z" fill="url(#paint6_angular_592_110)" mask="url(#path-13-inside-7_592_110)"/>
<mask id="path-15-inside-8_592_110" fill="white">
<path fill-rule="evenodd" clip-rule="evenodd" d="M284.714 132C271.41 170.973 234.478 199 191 199C136.324 199 92 154.676 92 100C92 45.3238 136.324 1 191 1C240.577 1 281.642 37.4418 288.871 85H289.882C282.645 36.8874 241.13 0 191 0C135.772 0 91 44.7715 91 100C91 155.228 135.772 200 191 200C235.037 200 272.426 171.535 285.77 132H284.714Z"/>
</mask>
<path d="M284.714 132V131H283.999L283.768 131.677L284.714 132ZM288.871 85L287.882 85.1503L288.011 86H288.871V85ZM289.882 85V86H291.044L290.871 84.8513L289.882 85ZM285.77 132L286.718 132.32L287.163 131H285.77V132ZM191 200C234.919 200 272.222 171.688 285.66 132.323L283.768 131.677C270.597 170.257 234.037 198 191 198V200ZM91 100C91 155.228 135.772 200 191 200V198C136.876 198 93 154.124 93 100H91ZM191 0C135.772 0 91 44.7715 91 100H93C93 45.8761 136.876 2 191 2V0ZM289.86 84.8497C282.558 36.8103 241.079 0 191 0V2C240.075 2 280.727 38.0734 287.882 85.1503L289.86 84.8497ZM288.871 86H289.882V84H288.871V86ZM290.871 84.8513C283.562 36.2566 241.633 -1 191 -1V1C240.628 1 281.729 37.5181 288.894 85.1487L290.871 84.8513ZM191 -1C135.219 -1 90 44.2192 90 100H92C92 45.3238 136.324 1 191 1V-1ZM90 100C90 155.781 135.219 201 191 201V199C136.324 199 92 154.676 92 100H90ZM191 201C235.479 201 273.241 172.249 286.718 132.32L284.823 131.68C271.612 170.821 234.595 199 191 199V201ZM285.77 131H284.714V133H285.77V131Z" fill="url(#paint7_angular_592_110)" mask="url(#path-15-inside-8_592_110)"/>
<mask id="path-17-inside-9_592_110" fill="white">
<path fill-rule="evenodd" clip-rule="evenodd" d="M297.714 132C284.41 170.973 247.478 199 204 199C149.324 199 105 154.676 105 100C105 45.3238 149.324 1 204 1C253.577 1 294.642 37.4418 301.871 85H302.882C295.645 36.8874 254.13 0 204 0C148.772 0 104 44.7715 104 100C104 155.228 148.772 200 204 200C248.037 200 285.426 171.535 298.77 132H297.714Z"/>
</mask>
<path d="M297.714 132V131H296.999L296.768 131.677L297.714 132ZM301.871 85L300.882 85.1503L301.011 86H301.871V85ZM302.882 85V86H304.044L303.871 84.8513L302.882 85ZM298.77 132L299.718 132.32L300.163 131H298.77V132ZM204 200C247.919 200 285.222 171.688 298.66 132.323L296.768 131.677C283.597 170.257 247.037 198 204 198V200ZM104 100C104 155.228 148.772 200 204 200V198C149.876 198 106 154.124 106 100H104ZM204 0C148.772 0 104 44.7715 104 100H106C106 45.8761 149.876 2 204 2V0ZM302.86 84.8497C295.558 36.8103 254.079 0 204 0V2C253.075 2 293.727 38.0734 300.882 85.1503L302.86 84.8497ZM301.871 86H302.882V84H301.871V86ZM303.871 84.8513C296.562 36.2566 254.633 -1 204 -1V1C253.628 1 294.729 37.5181 301.894 85.1487L303.871 84.8513ZM204 -1C148.219 -1 103 44.2192 103 100H105C105 45.3238 149.324 1 204 1V-1ZM103 100C103 155.781 148.219 201 204 201V199C149.324 199 105 154.676 105 100H103ZM204 201C248.479 201 286.241 172.249 299.718 132.32L297.823 131.68C284.612 170.821 247.595 199 204 199V201ZM298.77 131H297.714V133H298.77V131Z" fill="url(#paint8_angular_592_110)" mask="url(#path-17-inside-9_592_110)"/>
<mask id="path-19-inside-10_592_110" fill="white">
<path fill-rule="evenodd" clip-rule="evenodd" d="M310.714 132C297.41 170.973 260.478 199 217 199C162.324 199 118 154.676 118 100C118 45.3238 162.324 1 217 1C266.577 1 307.642 37.4418 314.871 85H315.882C308.645 36.8874 267.13 0 217 0C161.772 0 117 44.7715 117 100C117 155.228 161.772 200 217 200C261.037 200 298.426 171.535 311.77 132H310.714Z"/>
</mask>
<path d="M310.714 132V131H309.999L309.768 131.677L310.714 132ZM314.871 85L313.882 85.1503L314.011 86H314.871V85ZM315.882 85V86H317.044L316.871 84.8513L315.882 85ZM311.77 132L312.718 132.32L313.163 131H311.77V132ZM217 200C260.919 200 298.222 171.688 311.66 132.323L309.768 131.677C296.597 170.257 260.037 198 217 198V200ZM117 100C117 155.228 161.772 200 217 200V198C162.876 198 119 154.124 119 100H117ZM217 0C161.772 0 117 44.7715 117 100H119C119 45.8761 162.876 2 217 2V0ZM315.86 84.8497C308.558 36.8103 267.079 0 217 0V2C266.075 2 306.727 38.0734 313.882 85.1503L315.86 84.8497ZM314.871 86H315.882V84H314.871V86ZM316.871 84.8513C309.562 36.2566 267.633 -1 217 -1V1C266.628 1 307.729 37.5181 314.894 85.1487L316.871 84.8513ZM217 -1C161.219 -1 116 44.2192 116 100H118C118 45.3238 162.324 1 217 1V-1ZM116 100C116 155.781 161.219 201 217 201V199C162.324 199 118 154.676 118 100H116ZM217 201C261.479 201 299.241 172.249 312.718 132.32L310.823 131.68C297.612 170.821 260.595 199 217 199V201ZM311.77 131H310.714V133H311.77V131Z" fill="url(#paint9_angular_592_110)" mask="url(#path-19-inside-10_592_110)"/>
<mask id="path-21-inside-11_592_110" fill="white">
<path fill-rule="evenodd" clip-rule="evenodd" d="M323.714 132C310.41 170.973 273.478 199 230 199C175.324 199 131 154.676 131 100C131 45.3238 175.324 1 230 1C279.577 1 320.642 37.4418 327.871 85H328.882C321.645 36.8874 280.13 0 230 0C174.772 0 130 44.7715 130 100C130 155.228 174.772 200 230 200C274.037 200 311.426 171.535 324.77 132H323.714Z"/>
</mask>
<path d="M323.714 132V131H322.999L322.768 131.677L323.714 132ZM327.871 85L326.882 85.1503L327.011 86H327.871V85ZM328.882 85V86H330.044L329.871 84.8513L328.882 85ZM324.77 132L325.718 132.32L326.163 131H324.77V132ZM230 200C273.919 200 311.222 171.688 324.66 132.323L322.768 131.677C309.597 170.257 273.037 198 230 198V200ZM130 100C130 155.228 174.772 200 230 200V198C175.876 198 132 154.124 132 100H130ZM230 0C174.772 0 130 44.7715 130 100H132C132 45.8761 175.876 2 230 2V0ZM328.86 84.8497C321.558 36.8103 280.079 0 230 0V2C279.075 2 319.727 38.0734 326.882 85.1503L328.86 84.8497ZM327.871 86H328.882V84H327.871V86ZM329.871 84.8513C322.562 36.2566 280.633 -1 230 -1V1C279.628 1 320.729 37.5181 327.894 85.1487L329.871 84.8513ZM230 -1C174.219 -1 129 44.2192 129 100H131C131 45.3238 175.324 1 230 1V-1ZM129 100C129 155.781 174.219 201 230 201V199C175.324 199 131 154.676 131 100H129ZM230 201C274.479 201 312.241 172.249 325.718 132.32L323.823 131.68C310.612 170.821 273.595 199 230 199V201ZM324.77 131H323.714V133H324.77V131Z" fill="url(#paint10_angular_592_110)" mask="url(#path-21-inside-11_592_110)"/>
<g filter="url(#filter0_ddd_592_110)">
<path d="M212.66 114.066C212.66 115.566 212.391 116.902 211.852 118.074C211.312 119.223 210.562 120.23 209.602 121.098C208.641 121.941 207.492 122.668 206.156 123.277C204.844 123.863 203.414 124.344 201.867 124.719C200.32 125.07 198.668 125.316 196.91 125.457C195.176 125.621 193.418 125.703 191.637 125.703C189.129 125.703 186.633 125.574 184.148 125.316C181.664 125.059 179.344 124.742 177.188 124.367C175.031 123.969 173.121 123.547 171.457 123.102C169.816 122.656 168.574 122.234 167.73 121.836C167.402 121.672 167.156 121.473 166.992 121.238C166.852 120.98 166.781 120.723 166.781 120.465C166.781 120.184 166.852 119.949 166.992 119.762C167.156 119.551 167.391 119.445 167.695 119.445C167.836 119.445 168 119.48 168.188 119.551C169.102 119.926 170.414 120.336 172.125 120.781C173.836 121.227 175.77 121.648 177.926 122.047C180.105 122.422 182.414 122.738 184.852 122.996C187.312 123.254 189.75 123.383 192.164 123.383C194.508 123.383 196.734 123.23 198.844 122.926C200.953 122.621 202.805 122.105 204.398 121.379C206.016 120.652 207.293 119.691 208.23 118.496C209.191 117.301 209.672 115.824 209.672 114.066C209.672 112.59 209.262 111.383 208.441 110.445C207.645 109.484 206.555 108.723 205.172 108.16C203.789 107.574 202.172 107.141 200.32 106.859C198.469 106.555 196.5 106.332 194.414 106.191C192.352 106.027 190.219 105.91 188.016 105.84C185.812 105.746 183.668 105.605 181.582 105.418C179.52 105.23 177.562 104.961 175.711 104.609C173.859 104.258 172.242 103.742 170.859 103.062C169.477 102.383 168.375 101.504 167.555 100.426C166.758 99.3477 166.359 97.9883 166.359 96.3477C166.359 94.8477 166.641 93.5234 167.203 92.375C167.766 91.2266 168.539 90.2422 169.523 89.4219C170.508 88.5781 171.668 87.8867 173.004 87.3477C174.363 86.7852 175.828 86.3398 177.398 86.0117C178.992 85.6836 180.656 85.4492 182.391 85.3086C184.148 85.168 185.906 85.0977 187.664 85.0977C189.844 85.0977 191.988 85.2031 194.098 85.4141C196.207 85.6016 198.188 85.8711 200.039 86.2227C201.891 86.5508 203.555 86.9258 205.031 87.3477C206.508 87.7461 207.691 88.1562 208.582 88.5781C208.77 88.6719 208.91 88.8125 209.004 89C209.098 89.1641 209.145 89.3398 209.145 89.5273C209.145 89.8555 209.027 90.1602 208.793 90.4414C208.582 90.7227 208.277 90.8633 207.879 90.8633C207.645 90.8633 207.445 90.8164 207.281 90.7227C206.039 90.207 204.656 89.75 203.133 89.3516C201.633 88.9297 200.039 88.5781 198.352 88.2969C196.664 88.0156 194.918 87.8047 193.113 87.6641C191.332 87.5 189.562 87.418 187.805 87.418C185.367 87.418 183.035 87.5586 180.809 87.8398C178.582 88.1211 176.613 88.6016 174.902 89.2812C173.215 89.9375 171.867 90.8281 170.859 91.9531C169.852 93.0547 169.348 94.4492 169.348 96.1367C169.348 97.4258 169.746 98.4805 170.543 99.3008C171.363 100.098 172.465 100.742 173.848 101.234C175.23 101.727 176.848 102.102 178.699 102.359C180.551 102.594 182.508 102.781 184.57 102.922C186.656 103.062 188.801 103.191 191.004 103.309C193.207 103.402 195.34 103.578 197.402 103.836C199.488 104.07 201.457 104.41 203.309 104.855C205.16 105.277 206.777 105.875 208.16 106.648C209.543 107.422 210.633 108.418 211.43 109.637C212.25 110.832 212.66 112.309 212.66 114.066ZM247.711 120.113L269.508 87.3477C269.859 86.8086 270.211 86.4219 270.562 86.1875C270.938 85.9531 271.301 85.8359 271.652 85.8359C272.098 85.8359 272.461 86.0234 272.742 86.3984C273.047 86.75 273.199 87.1953 273.199 87.7344V122.539C273.199 123.219 273.117 123.805 272.953 124.297C272.789 124.766 272.367 125 271.688 125C271.102 125 270.703 124.766 270.492 124.297C270.305 123.805 270.211 123.219 270.211 122.539V91.3203L249.434 121.977C248.871 122.773 248.297 123.172 247.711 123.172C247.078 123.172 246.504 122.773 245.988 121.977L225.211 91.3203V122.539C225.211 123.219 225.105 123.805 224.895 124.297C224.707 124.766 224.32 125 223.734 125C223.055 125 222.633 124.766 222.469 124.297C222.305 123.805 222.223 123.219 222.223 122.539V87.7344C222.223 87.1953 222.363 86.75 222.645 86.3984C222.949 86.0234 223.324 85.8359 223.77 85.8359C224.098 85.8359 224.438 85.9531 224.789 86.1875C225.164 86.4219 225.539 86.8086 225.914 87.3477L247.711 120.113ZM334.758 105.418C334.758 108.84 334.242 111.828 333.211 114.383C332.203 116.914 330.633 119.023 328.5 120.711C326.391 122.398 323.707 123.664 320.449 124.508C317.215 125.328 313.371 125.738 308.918 125.738C304.465 125.738 300.609 125.328 297.352 124.508C294.117 123.664 291.445 122.398 289.336 120.711C287.227 119.023 285.656 116.914 284.625 114.383C283.617 111.828 283.113 108.84 283.113 105.418C283.113 101.996 283.617 99.0195 284.625 96.4883C285.656 93.9336 287.227 91.8125 289.336 90.125C291.445 88.4375 294.117 87.1836 297.352 86.3633C300.609 85.5195 304.465 85.0977 308.918 85.0977C313.371 85.0977 317.215 85.5195 320.449 86.3633C323.707 87.1836 326.391 88.4375 328.5 90.125C330.633 91.8125 332.203 93.9336 333.211 96.4883C334.242 99.0195 334.758 101.996 334.758 105.418ZM286.102 105.418C286.102 108.699 286.57 111.477 287.508 113.75C288.445 116.023 289.852 117.887 291.727 119.34C293.625 120.77 296.004 121.812 298.863 122.469C301.723 123.102 305.074 123.418 308.918 123.418C312.762 123.418 316.113 123.102 318.973 122.469C321.832 121.812 324.211 120.77 326.109 119.34C328.008 117.887 329.426 116.023 330.363 113.75C331.301 111.477 331.77 108.699 331.77 105.418C331.77 102.16 331.301 99.3945 330.363 97.1211C329.426 94.8242 328.008 92.9609 326.109 91.5312C324.211 90.0781 321.832 89.0352 318.973 88.4023C316.113 87.7461 312.762 87.418 308.918 87.418C305.074 87.418 301.723 87.7461 298.863 88.4023C296.004 89.0352 293.625 90.0781 291.727 91.5312C289.852 92.9609 288.445 94.8242 287.508 97.1211C286.57 99.3945 286.102 102.16 286.102 105.418ZM395.086 105.418C395.086 108.84 394.57 111.828 393.539 114.383C392.531 116.914 390.961 119.023 388.828 120.711C386.719 122.398 384.035 123.664 380.777 124.508C377.543 125.328 373.699 125.738 369.246 125.738C364.793 125.738 360.938 125.328 357.68 124.508C354.445 123.664 351.773 122.398 349.664 120.711C347.555 119.023 345.984 116.914 344.953 114.383C343.945 111.828 343.441 108.84 343.441 105.418C343.441 101.996 343.945 99.0195 344.953 96.4883C345.984 93.9336 347.555 91.8125 349.664 90.125C351.773 88.4375 354.445 87.1836 357.68 86.3633C360.938 85.5195 364.793 85.0977 369.246 85.0977C373.699 85.0977 377.543 85.5195 380.777 86.3633C384.035 87.1836 386.719 88.4375 388.828 90.125C390.961 91.8125 392.531 93.9336 393.539 96.4883C394.57 99.0195 395.086 101.996 395.086 105.418ZM346.43 105.418C346.43 108.699 346.898 111.477 347.836 113.75C348.773 116.023 350.18 117.887 352.055 119.34C353.953 120.77 356.332 121.812 359.191 122.469C362.051 123.102 365.402 123.418 369.246 123.418C373.09 123.418 376.441 123.102 379.301 122.469C382.16 121.812 384.539 120.77 386.438 119.34C388.336 117.887 389.754 116.023 390.691 113.75C391.629 111.477 392.098 108.699 392.098 105.418C392.098 102.16 391.629 99.3945 390.691 97.1211C389.754 94.8242 388.336 92.9609 386.438 91.5312C384.539 90.0781 382.16 89.0352 379.301 88.4023C376.441 87.7461 373.09 87.418 369.246 87.418C365.402 87.418 362.051 87.7461 359.191 88.4023C356.332 89.0352 353.953 90.0781 352.055 91.5312C350.18 92.9609 348.773 94.8242 347.836 97.1211C346.898 99.3945 346.43 102.16 346.43 105.418ZM423.633 121.836L443.707 87.5938C443.965 87.1484 444.234 86.7617 444.516 86.4336C444.797 86.1055 445.102 85.918 445.43 85.8711C445.875 85.8711 446.191 86.0117 446.379 86.293C446.566 86.5742 446.66 86.8438 446.66 87.1016C446.66 87.3594 446.578 87.6406 446.414 87.9453C446.273 88.2266 446.109 88.5195 445.922 88.8242L425.426 123.77C425.168 124.191 424.875 124.508 424.547 124.719C424.242 124.906 423.926 125 423.598 125C422.895 125 422.297 124.59 421.805 123.77L401.238 88.8242C401.051 88.4961 400.887 88.1914 400.746 87.9102C400.629 87.6055 400.57 87.3125 400.57 87.0312C400.57 86.8438 400.664 86.6094 400.852 86.3281C401.039 86.0234 401.332 85.8711 401.73 85.8711C402.129 85.918 402.457 86.1055 402.715 86.4336C402.996 86.7617 403.266 87.1484 403.523 87.5938L423.633 121.836ZM490.465 123.77C490.465 124.121 490.406 124.379 490.289 124.543C490.172 124.707 490.008 124.824 489.797 124.895C489.609 124.965 489.375 125 489.094 125C488.812 125 488.496 125 488.145 125H455.309C455.074 125 454.898 124.988 454.781 124.965C454.664 124.941 454.57 124.883 454.5 124.789C454.453 124.695 454.418 124.578 454.395 124.438C454.395 124.273 454.395 124.051 454.395 123.77V87.4883C454.395 87.1367 454.395 86.8555 454.395 86.6445C454.418 86.4336 454.465 86.2695 454.535 86.1523C454.605 86.0352 454.723 85.9531 454.887 85.9062C455.074 85.8594 455.344 85.8359 455.695 85.8359H487.793C488.145 85.8359 488.473 85.8359 488.777 85.8359C489.082 85.8359 489.352 85.8711 489.586 85.9414C489.844 86.0117 490.043 86.1289 490.184 86.293C490.324 86.457 490.395 86.7148 490.395 87.0664C490.395 87.3477 490.324 87.5703 490.184 87.7344C490.043 87.875 489.844 87.9805 489.586 88.0508C489.352 88.1211 489.082 88.1562 488.777 88.1562C488.473 88.1562 488.145 88.1562 487.793 88.1562H457.383V103.555H487.617C488.133 103.555 488.566 103.625 488.918 103.766C489.27 103.906 489.445 104.211 489.445 104.68C489.445 105.195 489.293 105.535 488.988 105.699C488.707 105.863 488.332 105.945 487.863 105.945H457.383V122.68H487.863C488.215 122.68 488.543 122.68 488.848 122.68C489.152 122.68 489.422 122.715 489.656 122.785C489.914 122.855 490.113 122.973 490.254 123.137C490.395 123.277 490.465 123.488 490.465 123.77Z" fill="url(#paint11_linear_592_110)" shape-rendering="crispEdges"/>
</g>
<defs>
<filter id="filter0_ddd_592_110" x="156.359" y="79.0977" width="344.105" height="60.6406" filterUnits="userSpaceOnUse" color-interpolation-filters="sRGB">
<feFlood flood-opacity="0" result="BackgroundImageFix"/>
<feColorMatrix in="SourceAlpha" type="matrix" values="0 0 0 0 0 0 0 0 0 0 0 0 0 0 0 0 0 0 127 0" result="hardAlpha"/>
<feOffset dy="4"/>
<feGaussianBlur stdDeviation="5"/>
<feComposite in2="hardAlpha" operator="out"/>
<feColorMatrix type="matrix" values="0 0 0 0 0 0 0 0 0 0 0 0 0 0 0 0 0 0 0.25 0"/>
<feBlend mode="normal" in2="BackgroundImageFix" result="effect1_dropShadow_592_110"/>
<feColorMatrix in="SourceAlpha" type="matrix" values="0 0 0 0 0 0 0 0 0 0 0 0 0 0 0 0 0 0 127 0" result="hardAlpha"/>
<feOffset dy="4"/>
<feGaussianBlur stdDeviation="5"/>
<feComposite in2="hardAlpha" operator="out"/>
<feColorMatrix type="matrix" values="0 0 0 0 0 0 0 0 0 0 0 0 0 0 0 0 0 0 0.25 0"/>
<feBlend mode="normal" in2="effect1_dropShadow_592_110" result="effect2_dropShadow_592_110"/>
<feColorMatrix in="SourceAlpha" type="matrix" values="0 0 0 0 0 0 0 0 0 0 0 0 0 0 0 0 0 0 127 0" result="hardAlpha"/>
<feOffset dy="4"/>
<feGaussianBlur stdDeviation="5"/>
<feComposite in2="hardAlpha" operator="out"/>
<feColorMatrix type="matrix" values="0 0 0 0 0 0 0 0 0 0 0 0 0 0 0 0 0 0 0.41 0"/>
<feBlend mode="normal" in2="effect2_dropShadow_592_110" result="effect3_dropShadow_592_110"/>
<feBlend mode="normal" in="SourceGraphic" in2="effect3_dropShadow_592_110" result="shape"/>
</filter>
<radialGradient id="paint0_angular_592_110" cx="0" cy="0" r="1" gradientUnits="userSpaceOnUse" gradientTransform="translate(133.806 100) rotate(86.8078) scale(100.155 59.9215)">
<stop offset="0.164583" stop-color="#230045" stop-opacity="0.7"/>
<stop offset="0.294792" stop-color="#BF4D76"/>
<stop offset="0.45625" stop-color="#6C006C" stop-opacity="0.669605"/>
<stop offset="0.706151" stop-color="#5586BE" stop-opacity="0.19"/>
<stop offset="0.898986" stop-color="#5586BE"/>
</radialGradient>
<radialGradient id="paint1_angular_592_110" cx="0" cy="0" r="1" gradientUnits="userSpaceOnUse" gradientTransform="translate(146.806 100) rotate(86.8078) scale(100.155 59.9215)">
<stop offset="0.164583" stop-color="#230045" stop-opacity="0.7"/>
<stop offset="0.294792" stop-color="#BF4D76"/>
<stop offset="0.45625" stop-color="#6C006C" stop-opacity="0.669605"/>
<stop offset="0.706151" stop-color="#5586BE" stop-opacity="0.19"/>
<stop offset="0.898986" stop-color="#5586BE"/>
</radialGradient>
<radialGradient id="paint2_angular_592_110" cx="0" cy="0" r="1" gradientUnits="userSpaceOnUse" gradientTransform="translate(159.806 100) rotate(86.8078) scale(100.155 59.9215)">
<stop offset="0.164583" stop-color="#230045" stop-opacity="0.7"/>
<stop offset="0.294792" stop-color="#BF4D76"/>
<stop offset="0.45625" stop-color="#6C006C" stop-opacity="0.669605"/>
<stop offset="0.706151" stop-color="#5586BE" stop-opacity="0.19"/>
<stop offset="0.898986" stop-color="#5586BE"/>
</radialGradient>
<radialGradient id="paint3_angular_592_110" cx="0" cy="0" r="1" gradientUnits="userSpaceOnUse" gradientTransform="translate(172.806 100) rotate(86.8078) scale(100.155 59.9215)">
<stop offset="0.164583" stop-color="#230045" stop-opacity="0.7"/>
<stop offset="0.294792" stop-color="#BF4D76"/>
<stop offset="0.45625" stop-color="#6C006C" stop-opacity="0.669605"/>
<stop offset="0.706151" stop-color="#5586BE" stop-opacity="0.19"/>
<stop offset="0.898986" stop-color="#5586BE"/>
</radialGradient>
<radialGradient id="paint4_angular_592_110" cx="0" cy="0" r="1" gradientUnits="userSpaceOnUse" gradientTransform="translate(185.806 100) rotate(86.8078) scale(100.155 59.9215)">
<stop offset="0.164583" stop-color="#230045" stop-opacity="0.7"/>
<stop offset="0.294792" stop-color="#BF4D76"/>
<stop offset="0.45625" stop-color="#6C006C" stop-opacity="0.669605"/>
<stop offset="0.706151" stop-color="#5586BE" stop-opacity="0.19"/>
<stop offset="0.898986" stop-color="#5586BE"/>
</radialGradient>
<radialGradient id="paint5_angular_592_110" cx="0" cy="0" r="1" gradientUnits="userSpaceOnUse" gradientTransform="translate(198.806 100) rotate(86.8078) scale(100.155 59.9215)">
<stop offset="0.164583" stop-color="#230045" stop-opacity="0.7"/>
<stop offset="0.294792" stop-color="#BF4D76"/>
<stop offset="0.45625" stop-color="#6C006C" stop-opacity="0.669605"/>
<stop offset="0.706151" stop-color="#5586BE" stop-opacity="0.19"/>
<stop offset="0.898986" stop-color="#5586BE"/>
</radialGradient>
<radialGradient id="paint6_angular_592_110" cx="0" cy="0" r="1" gradientUnits="userSpaceOnUse" gradientTransform="translate(211.806 100) rotate(86.8078) scale(100.155 59.9215)">
<stop offset="0.164583" stop-color="#230045" stop-opacity="0.7"/>
<stop offset="0.294792" stop-color="#BF4D76"/>
<stop offset="0.45625" stop-color="#6C006C" stop-opacity="0.669605"/>
<stop offset="0.706151" stop-color="#5586BE" stop-opacity="0.19"/>
<stop offset="0.898986" stop-color="#5586BE"/>
</radialGradient>
<radialGradient id="paint7_angular_592_110" cx="0" cy="0" r="1" gradientUnits="userSpaceOnUse" gradientTransform="translate(224.806 100) rotate(86.8078) scale(100.155 59.9215)">
<stop offset="0.164583" stop-color="#230045" stop-opacity="0.7"/>
<stop offset="0.294792" stop-color="#BF4D76"/>
<stop offset="0.45625" stop-color="#6C006C" stop-opacity="0.669605"/>
<stop offset="0.706151" stop-color="#5586BE" stop-opacity="0.19"/>
<stop offset="0.898986" stop-color="#5586BE"/>
</radialGradient>
<radialGradient id="paint8_angular_592_110" cx="0" cy="0" r="1" gradientUnits="userSpaceOnUse" gradientTransform="translate(237.806 100) rotate(86.8078) scale(100.155 59.9215)">
<stop offset="0.164583" stop-color="#230045" stop-opacity="0.7"/>
<stop offset="0.294792" stop-color="#BF4D76"/>
<stop offset="0.45625" stop-color="#6C006C" stop-opacity="0.669605"/>
<stop offset="0.706151" stop-color="#5586BE" stop-opacity="0.19"/>
<stop offset="0.898986" stop-color="#5586BE"/>
</radialGradient>
<radialGradient id="paint9_angular_592_110" cx="0" cy="0" r="1" gradientUnits="userSpaceOnUse" gradientTransform="translate(250.806 100) rotate(86.8078) scale(100.155 59.9215)">
<stop offset="0.164583" stop-color="#230045" stop-opacity="0.7"/>
<stop offset="0.294792" stop-color="#BF4D76"/>
<stop offset="0.45625" stop-color="#6C006C" stop-opacity="0.669605"/>
<stop offset="0.706151" stop-color="#5586BE" stop-opacity="0.19"/>
<stop offset="0.898986" stop-color="#5586BE"/>
</radialGradient>
<radialGradient id="paint10_angular_592_110" cx="0" cy="0" r="1" gradientUnits="userSpaceOnUse" gradientTransform="translate(263.806 100) rotate(86.8078) scale(100.155 59.9215)">
<stop offset="0.164583" stop-color="#230045" stop-opacity="0.7"/>
<stop offset="0.294792" stop-color="#BF4D76"/>
<stop offset="0.45625" stop-color="#6C006C" stop-opacity="0.669605"/>
<stop offset="0.706151" stop-color="#5586BE" stop-opacity="0.19"/>
<stop offset="0.898986" stop-color="#5586BE"/>
</radialGradient>
<linearGradient id="paint11_linear_592_110" x1="408.966" y1="35.2243" x2="406.773" y2="173.296" gradientUnits="userSpaceOnUse">
<stop offset="0.273958" stop-color="white" stop-opacity="0.58"/>
<stop offset="0.810417" stop-color="#E43C79" stop-opacity="0.5"/>
</linearGradient>
</defs>
</svg>
